<?xml version="1.0" encoding="UTF-8"?>
<svg version="1.1" xmlns="http://www.w3.org/2000/svg" width="577" height="580">
<path d="M0 0 C190.41 0 380.82 0 577 0 C577 191.4 577 382.8 577 580 C386.59 580 196.18 580 0 580 C0 388.6 0 197.2 0 0 Z " fill="#FEFEFE" transform="translate(0,0)"/>
<path d="M0 0 C6.81141773 4.47758313 10.80939524 11.37530696 14.19140625 18.59765625 C14.59570862 19.43416718 15.00001099 20.2706781 15.41656494 21.13253784 C16.71305109 23.82229676 17.9914918 26.52018454 19.26953125 29.21875 C20.16555624 31.08720284 21.06269808 32.95512048 21.9609375 34.82250977 C24.12047904 39.31838578 26.26645137 43.82057343 28.40844727 48.3248291 C29.87722913 51.4068182 31.36093761 54.48131075 32.84765625 57.5546875 C36.56421326 65.25023888 40.21577845 72.97178896 43.7734375 80.7421875 C44.04972992 81.34476883 44.32602234 81.94735016 44.61068726 82.56819153 C45.96007716 85.51244309 47.30381692 88.45903686 48.63867188 91.40991211 C49.35506836 92.98011108 49.35506836 92.98011108 50.0859375 94.58203125 C50.50818604 95.51442627 50.93043457 96.44682129 51.36547852 97.4074707 C52.43688144 99.77776843 52.43688144 99.77776843 54.51953125 101.65625 C57.38929408 102.49108326 57.38929408 102.49108326 60.51953125 101.65625 C66.06781337 94.12714247 69.60839349 85.23499256 73.51953125 76.78125 C74.2247513 75.26408616 74.93047698 73.74715725 75.63671875 72.23046875 C75.98081787 71.49149353 76.32491699 70.75251831 76.67944336 69.9911499 C77.99598229 67.16984984 79.31967519 64.35193372 80.64404297 61.53430176 C81.44001002 59.82683478 82.2171652 58.11062995 82.9921875 56.39355469 C83.41371094 55.48766602 83.83523438 54.58177734 84.26953125 53.6484375 C84.615 52.88644043 84.96046875 52.12444336 85.31640625 51.33935547 C86.51953125 49.65625 86.51953125 49.65625 88.66015625 48.90673828 C89.27375 48.82407715 89.88734375 48.74141602 90.51953125 48.65625 C92.95841924 52.31458198 92.77800854 54.08254785 92.79418945 58.4440918 C92.79930038 59.13083984 92.80441132 59.81758789 92.80967712 60.52514648 C92.82360192 62.80200886 92.82261155 65.07856874 92.8203125 67.35546875 C92.82420328 68.94953014 92.82853874 70.5435905 92.83329773 72.13764954 C92.84077006 75.48934268 92.84046532 78.84093058 92.83520508 82.19262695 C92.82946691 86.44310031 92.8461975 90.69312983 92.86954975 94.94353008 C92.88445963 98.24429253 92.88513472 101.54495301 92.88204002 104.84574318 C92.88254656 106.40949176 92.88765577 107.97324709 92.89785194 109.53696251 C92.98155021 124.19348795 91.39354317 138.09034837 85.33935547 151.62451172 C85.05082703 152.26958679 84.76229858 152.91466187 84.46502686 153.57928467 C81.48702626 160.12104326 78.44181484 166.62765252 75.33374023 173.10864258 C74.0830184 175.71669156 72.83877633 178.32775118 71.59570312 180.93945312 C69.61803643 185.08869273 67.62621075 189.23086223 65.62432861 193.36846924 C64.90297009 194.86223651 64.18453317 196.35741919 63.46942139 197.85418701 C62.52384499 199.83244375 61.56820533 201.80548502 60.609375 203.77734375 C60.08077881 204.87361084 59.55218262 205.96987793 59.00756836 207.09936523 C57.51953125 209.65625 57.51953125 209.65625 54.51953125 211.65625 C52.08203125 212.09375 52.08203125 212.09375 49.51953125 211.65625 C45.74993208 207.67347014 43.55804869 203.0715886 41.2109375 198.18359375 C40.80817596 197.35709824 40.40541443 196.53060272 39.990448 195.67906189 C38.68110721 192.98707368 37.38132433 190.29060027 36.08203125 187.59375 C35.17159206 185.71551854 34.26086389 183.83742713 33.34985352 181.95947266 C27.9389723 170.78324853 22.64117787 159.5612326 17.46313477 148.27514648 C12.80278197 138.15938308 7.918126 128.15827047 3.01953125 118.15625 C-2.9949535 105.87534643 -8.90407808 93.56323221 -14.60693359 81.13378906 C-17.64813148 74.53109899 -20.76388797 67.97170363 -23.94921875 61.4375 C-24.33483978 60.6464386 -24.72046082 59.8553772 -25.11776733 59.04034424 C-27.01673305 55.14959895 -28.92209222 51.26209773 -30.83447266 47.37792969 C-31.53159964 45.95508994 -32.22870359 44.53223891 -32.92578125 43.109375 C-33.24083618 42.4740686 -33.55589111 41.83876221 -33.88049316 41.1842041 C-38.16199513 32.42776751 -41.31112553 24.79433449 -38.41796875 15.09375 C-34.43863853 8.033648 -29.7801444 3.17090865 -22.48046875 -0.34375 C-21.71734375 -0.75625 -20.95421875 -1.16875 -20.16796875 -1.59375 C-13.10074151 -3.56599946 -6.7753759 -2.49315365 0 0 Z " fill="#020202" transform="translate(178.48046875,210.34375)"/>
<path d="M0 0 C5.87361023 4.27359338 10.1053085 9.61164347 12.22265625 16.6171875 C12.64861679 20.13562355 12.64316045 23.62283367 12.62670898 27.16381836 C12.63357224 28.20227905 12.64043549 29.24073975 12.64750671 30.31066895 C12.66576421 33.73459671 12.66193567 37.15806535 12.65625 40.58203125 C12.660815 42.97750496 12.66612153 45.37297736 12.6721344 47.76844788 C12.68106555 52.79107985 12.67864538 57.81355287 12.66870117 62.83618164 C12.65726092 69.23441904 12.67734743 75.63210047 12.70661831 82.03026485 C12.72508504 86.98150557 12.72466622 91.93261596 12.71898079 96.88388252 C12.71882859 99.24029884 12.72478811 101.59672458 12.73727226 103.95310783 C12.81139368 120.24878932 12.34703553 135.7764323 4.16015625 150.3671875 C3.58479126 151.41894165 3.58479126 151.41894165 2.99780273 152.49194336 C-5.89873709 168.06934146 -19.66687573 178.33895409 -35.77734375 185.6171875 C-36.91236328 186.14699219 -36.91236328 186.14699219 -38.0703125 186.6875 C-48.39045861 190.2317926 -58.92783834 190.05633491 -69.71484375 190.0546875 C-70.58562561 190.05608734 -71.45640747 190.05748718 -72.35357666 190.05892944 C-89.54384766 190.03613698 -108.37581567 189.27174756 -121.33984375 176.3671875 C-123.99470458 172.97281112 -124.42560667 170.16773631 -124.37890625 165.92578125 C-122.7892752 159.82531405 -118.28637187 155.98647721 -113.58984375 152.1796875 C-112.72927368 151.46800415 -112.72927368 151.46800415 -111.85131836 150.74194336 C-107.23262511 146.93964338 -102.56592985 143.20374076 -97.77734375 139.6171875 C-96.26140625 138.4415625 -96.26140625 138.4415625 -94.71484375 137.2421875 C-91.10825534 135.24705349 -87.90445356 134.38958953 -83.77734375 134.6171875 C-82.8440625 134.936875 -81.91078125 135.2565625 -80.94921875 135.5859375 C-72.73870189 138.25536663 -63.59686022 137.44481285 -55.82421875 133.8125 C-50.6293965 130.77888243 -44.99757984 124.69689169 -43.22249413 118.76211834 C-42.77936204 116.6269125 -42.64735036 114.72994995 -42.63931274 112.55220032 C-42.63385941 111.75194931 -42.62840607 110.9516983 -42.62278748 110.12719727 C-42.62174515 109.25804687 -42.62070282 108.38889648 -42.61962891 107.4934082 C-42.61454819 106.57093796 -42.60946747 105.64846771 -42.60423279 104.69804382 C-42.59353802 102.69555419 -42.58491434 100.69305268 -42.57811356 98.69054604 C-42.56630678 95.51622444 -42.54684798 92.34203781 -42.5249939 89.16777039 C-42.46344648 80.14257326 -42.4093972 71.1173896 -42.37597656 62.09204102 C-42.35497732 56.56949889 -42.31962982 51.04720253 -42.27521896 45.52480125 C-42.26109849 43.42499887 -42.2523455 41.32515301 -42.24916458 39.22530556 C-42.24423043 36.27925717 -42.2210071 33.3338554 -42.19384766 30.38793945 C-42.19835686 29.0993956 -42.19835686 29.0993956 -42.20295715 27.78482056 C-42.08033799 18.78319353 -39.65610473 10.58111389 -33.2109375 4.0234375 C-23.69664325 -4.66075054 -11.46432781 -6.59897894 0 0 Z " fill="#0170C1" transform="translate(423.77734375,230.3828125)"/>
<path d="M0 0 C5.63799982 3.98646452 9.61701716 9.3339795 11.70703125 15.9140625 C12.0029881 19.03967326 11.99052691 22.15298823 11.98168945 25.29077148 C11.98680038 26.22796021 11.99191132 27.16514893 11.99717712 28.1307373 C12.01105956 31.22394219 12.0101174 34.31692394 12.0078125 37.41015625 C12.01170005 39.56340111 12.01603484 41.7166452 12.02079773 43.86988831 C12.02825696 48.38146451 12.0279707 52.89296245 12.02270508 57.40454102 C12.01690963 63.18270066 12.03384488 68.96053985 12.05704975 74.73864651 C12.07178922 79.18506235 12.07265851 83.63140104 12.06954002 88.07783699 C12.07005308 90.20806577 12.07528798 92.33829888 12.08535194 94.46850395 C12.09770349 97.44853354 12.09093222 100.4279392 12.0793457 103.40795898 C12.09081131 104.72435112 12.09081131 104.72435112 12.10250854 106.06733704 C12.05233177 111.91312913 11.16547997 116.29200051 7.01220703 120.72167969 C6.09157471 121.4588623 6.09157471 121.4588623 5.15234375 122.2109375 C4.46156738 122.77280762 3.77079102 123.33467773 3.05908203 123.91357422 C2.32415527 124.49123535 1.58922852 125.06889648 0.83203125 125.6640625 C-0.30709717 126.57115967 -0.30709717 126.57115967 -1.46923828 127.49658203 C-3.01158369 128.72261537 -4.5569765 129.94482535 -6.10546875 131.16308594 C-8.08589126 132.74830806 -10.00759722 134.37852689 -11.91796875 136.046875 C-16.69797469 140.14070176 -20.72929236 143.51031636 -27.23046875 143.8515625 C-31.05256406 143.42317627 -34.33620865 142.62921891 -37.1484375 139.80078125 C-39.69924941 135.59585922 -40.43731401 130.69711096 -41.29296875 125.9140625 C-41.46518951 125.06724915 -41.63741028 124.22043579 -41.81484985 123.34796143 C-42.43927179 118.86329909 -42.46502961 114.45935535 -42.48583984 109.93652344 C-42.49401733 108.94709244 -42.50219482 107.95766144 -42.51062012 106.93824768 C-42.53536324 103.67498363 -42.55196066 100.41176271 -42.56640625 97.1484375 C-42.57172993 96.03006752 -42.5770536 94.91169754 -42.5825386 93.75943756 C-42.60922049 87.84109687 -42.62861227 81.92277693 -42.64306641 76.00439453 C-42.65640773 71.117811 -42.68427194 66.23164481 -42.72509766 61.34521484 C-42.77449762 55.4313997 -42.7991961 49.51796315 -42.80629349 43.6039505 C-42.81299052 41.35697543 -42.82817196 39.1100083 -42.8521843 36.86315155 C-42.88394957 33.71138358 -42.8838553 30.56106696 -42.87646484 27.40917969 C-42.89287018 26.49143265 -42.90927551 25.57368561 -42.92617798 24.62812805 C-42.84491803 16.11250864 -39.7077153 9.36068998 -34.04296875 3.0390625 C-23.92351741 -6.16637388 -11.76087617 -6.50470477 0 0 Z " fill="#010101" transform="translate(318.29296875,240.0859375)"/>
<path d="M0 0 C190.41 0 380.82 0 577 0 C577 191.4 577 382.8 577 580 C386.59 580 196.18 580 0 580 C0 388.6 0 197.2 0 0 Z M1 4 C1 193.09 1 382.18 1 577 C190.09 577 379.18 577 574 577 C574 387.91 574 198.82 574 4 C384.91 4 195.82 4 1 4 Z " fill="#EBEBEB" transform="translate(0,0)"/>
<path d="M0 0 C3 0.6875 3 0.6875 4.875 3.0859375 C7.63946349 7.52125215 9.78761304 12.2734823 12 17 C12.98010501 19.07308867 13.96058669 21.1459993 14.94140625 23.21875 C15.44559082 24.28738281 15.94977539 25.35601562 16.46923828 26.45703125 C18.44069482 30.61752774 20.44093959 34.76364976 22.45019531 38.90600586 C23.4549851 40.99623912 24.44488584 43.09368539 25.42089844 45.19750977 C27.84320509 50.3956724 30.34512904 55.34281756 33.42578125 60.18359375 C42.76672478 75.79097288 43.0795593 90.44845675 43 108.25 C42.99689819 109.43541382 42.99379639 110.62082764 42.99060059 111.84216309 C42.96460545 115.27269026 42.8993309 118.69941738 42.8125 122.12890625 C42.79495667 123.1592952 42.77741333 124.18968414 42.75933838 125.251297 C42.42483959 133.88082327 40.13923853 141.36769564 34 147.6875 C27.34092479 152.75418766 21.38844487 154.28324742 13.10546875 154.12890625 C6.4387968 153.1813164 1.05631716 149.4973729 -3 144.1875 C-7.55577457 137.35383815 -7.29662098 130.15577359 -7.29052734 122.24389648 C-7.29724457 120.99284119 -7.30396179 119.74178589 -7.31088257 118.45281982 C-7.32659435 115.03345243 -7.33323557 111.61432794 -7.33451414 108.19494128 C-7.33593849 106.05710043 -7.34021332 103.91928484 -7.34550858 101.78145027 C-7.36398734 94.31920892 -7.37218134 86.85703887 -7.37060547 79.39477539 C-7.36940259 72.44411671 -7.39053885 65.49376781 -7.4220928 58.54318756 C-7.44824792 52.56850077 -7.45897319 46.59391528 -7.45769465 40.61917168 C-7.45718506 37.05368103 -7.46286699 33.48846626 -7.48405075 29.92303276 C-7.50701973 25.94913484 -7.49791688 21.97566251 -7.48583984 18.00170898 C-7.49707886 16.82286636 -7.50831787 15.64402374 -7.51989746 14.42945862 C-7.45843498 6.49017305 -7.45843498 6.49017305 -5.15713501 2.46083069 C-3 0.6875 -3 0.6875 0 0 Z " fill="#020202" transform="translate(144,276.3125)"/>
<path d="M0 0 C5.83698241 4.35365685 9.80111705 10.65305503 11.3671875 17.765625 C12.37199333 26.37625274 10.63682512 33.83483746 5.6796875 40.953125 C1.36555808 46.32968928 -4.0002994 50.69530665 -10.6328125 52.765625 C-20.21968009 53.68837315 -29.75981809 54.08473893 -37.6328125 47.765625 C-44.69590461 40.93523166 -48.62382628 32.11968994 -49.2578125 22.328125 C-48.868945 13.54724586 -44.54838705 6.15573107 -38.2578125 0.203125 C-26.34416256 -9.34765103 -12.56983339 -7.87047319 0 0 Z " fill="#0370C1" transform="translate(428.6328125,157.234375)"/>
</svg>
